<?xml version="1.0" encoding="utf-8"?>
<!-- Svg Vector Icons : http://www.onlinewebfonts.com/icon -->
<!DOCTYPE svg PUBLIC "-//W3C//DTD SVG 1.1//EN" "http://www.w3.org/Graphics/SVG/1.1/DTD/svg11.dtd">
<svg version="1.1" xmlns="http://www.w3.org/2000/svg" xmlns:xlink="http://www.w3.org/1999/xlink" x="0px" y="0px" viewBox="0 0 1000 1000" enable-background="new 0 0 1000 1000" xml:space="preserve">
<metadata> Svg Vector Icons : http://www.onlinewebfonts.com/icon </metadata>
<g><g><g><g><path d="M743.5,904.3c-13.9,0-26.6-2-37.5-6c-10.9-3.9-21.4-10.3-31-18.9c-9.7-8.7-19-19-27.4-30.8c-8.6-12-17.2-24.3-25.5-36.4L508,637.3H315v179.2c0,29.1-6.7,51.2-20,65.8c-13.4,14.7-30.1,21.9-51.1,21.9c-21.7,0-38.5-7.2-51.5-22.1c-13-14.8-19.5-36.9-19.5-65.6V637.3H62.4c-28.9,0-52.4-23.5-52.4-52.4s23.5-52.4,52.4-52.4h110.5v-89.4H62.4c-28.9,0-52.4-23.5-52.4-52.4c0-28.9,23.5-52.4,52.4-52.4h110.5V207.7c0-25.2,2.7-45.1,8.2-58.9c6.8-16,17.4-28.4,32.7-38.3c15.3-9.9,31.3-14.7,49.1-14.7c13.7,0,25.6,2.2,35.3,6.7c10,4.5,18.4,10.4,25.8,18c7.5,7.7,15.3,17.8,23.2,30c8.1,12.6,16.4,25.7,25.3,39.6l97.9,148.2h216.2V183.5c0-29.4,6.3-51.7,18.7-66.2c12.5-14.5,28.9-21.6,50.2-21.6c22,0,38.9,7.1,51.5,21.6c12.6,14.5,19,36.7,19,66.1v154.8h111.8c28.9,0,52.4,23.5,52.4,52.4c0,28.9-23.5,52.4-52.4,52.4H825.8v89.5h111.8c28.9,0,52.4,23.5,52.4,52.4c0,28.9-23.5,52.4-52.4,52.4H825.8v166.8C825.8,871.5,798.9,904.3,743.5,904.3z M297.7,602.7h219.7c5.8,0,11.3,3,14.5,7.8l118.9,182.3c7.9,11.7,16.4,23.7,24.9,35.5c7,9.7,14.5,18.2,22.4,25.2c6.3,5.7,12.9,9.8,19.7,12.2c7.3,2.6,15.9,4,25.8,4c20.2,0,47.8,0,47.8-65.5V620c0-9.5,7.8-17.3,17.3-17.3h129.1c9.8,0,17.8-8,17.8-17.8c0-9.8-8-17.8-17.8-17.8H808.5c-9.5,0-17.3-7.7-17.3-17.3v-124c0-9.5,7.7-17.3,17.3-17.3h129.1c9.8,0,17.8-8,17.8-17.8c0-9.8-8-17.8-17.8-17.8H808.5c-9.5,0-17.3-7.8-17.3-17.3V183.5c0-25.9-5.7-37.9-10.5-43.4c-4.2-4.8-10.5-9.7-25.4-9.7c-11.2,0-18.1,2.8-23.9,9.5c-4.7,5.5-10.4,17.6-10.4,43.6v172.1c0,9.5-7.7,17.3-17.3,17.3H460.9c-5.8,0-11.2-2.9-14.4-7.8L343.3,208.9c-9-14.2-17.3-27.2-25.3-39.7c-6.6-10.3-12.9-18.6-18.9-24.6c-4.4-4.5-9.4-8-15.4-10.7c-5.1-2.3-12.3-3.6-20.9-3.6c-11,0-20.6,2.9-30.3,9.2c-9.4,6.1-15.6,13.2-19.4,22.3c-2,5.1-5.6,18.5-5.6,45.9v147.9c0,9.5-7.7,17.3-17.3,17.3H62.4c-9.8,0-17.8,8-17.8,17.8c0,9.8,8,17.8,17.8,17.8h127.8c9.5,0,17.3,7.7,17.3,17.3v124c0,9.5-7.7,17.3-17.3,17.3H62.4c-9.8,0-17.8,8-17.8,17.8c0,9.8,8,17.8,17.8,17.8h127.8c9.5,0,17.3,7.7,17.3,17.3v196.5c0,19.8,3.8,34.6,11,42.8c6.3,7.2,13.9,10.3,25.5,10.3c11.1,0,18.7-3.1,25.4-10.6c7.2-7.9,11-22.7,11-42.5V620C280.4,610.5,288.1,602.7,297.7,602.7z M703.7,740.2c-5.7,0-11.2-2.8-14.4-7.8l-68-102.9c-3.5-5.3-3.8-12.1-0.8-17.7c3-5.6,8.9-9.1,15.2-9.1h68c9.5,0,17.3,7.7,17.3,17.3v102.9c0,7.6-5,14.4-12.3,16.6C707,740,705.3,740.2,703.7,740.2z M667.9,637.3l18.5,28v-28H667.9z M703.7,567.1H589.3c-5.8,0-11.2-2.9-14.4-7.8l-82-124c-3.5-5.3-3.8-12.1-0.8-17.7c3-5.6,8.9-9.1,15.2-9.1h196.4c9.5,0,17.3,7.7,17.3,17.3v124C721,559.4,713.2,567.1,703.7,567.1z M598.6,532.5h87.8v-89.4H539.5L598.6,532.5z M471.6,567.1H297.7c-9.5,0-17.3-7.7-17.3-17.3v-124c0-9.5,7.7-17.3,17.3-17.3h93c5.8,0,11.3,3,14.5,7.9l80.9,124c3.5,5.3,3.7,12.1,0.7,17.7C483.7,563.7,477.9,567.1,471.6,567.1z M315,532.5h124.6l-58.3-89.4H315V532.5L315,532.5z M344.9,372.9h-47.2c-9.5,0-17.3-7.8-17.3-17.3v-72.3c0-7.7,5-14.4,12.4-16.6c7.3-2.2,15.2,0.7,19.4,7.1l47.2,72.3c3.5,5.3,3.8,12.1,0.7,17.7C357,369.4,351.2,372.9,344.9,372.9z"/></g></g></g><g></g><g></g><g></g><g></g><g></g><g></g><g></g><g></g><g></g><g></g><g></g><g></g><g></g><g></g><g></g></g>
</svg>